<svg id="Layer_1" data-name="Layer 1" xmlns="http://www.w3.org/2000/svg" viewBox="0 0 576.01 512.04"><defs><style>.cls-1{opacity:0.4;isolation:isolate;}</style></defs><title>book</title><path class="cls-1" d="M274.81,96H160V32A32,32,0,0,1,192,0h64A31.8,31.8,0,0,1,273.62,5.3a24,24,0,0,0-15.8,29.1ZM0,480a32,32,0,0,0,32,32H96a32,32,0,0,0,32-32V416H0ZM386.82,34.4c-.21-.8-.38-1.59-.51-2.39h-63L446.18,477.62c.21.8.38,1.59.51,2.39h63ZM96,0H32A32,32,0,0,0,0,32V96H128V32A32,32,0,0,0,96,0Zm64,480a32,32,0,0,0,32,32h64a32,32,0,0,0,32-32V416H160ZM0,384H128V128H0ZM283.63,128H160V384H288V143.84Z"/><path d="M0,128H128V96H0ZM160,416H288V384H160ZM0,416H128V384H0ZM319.38,17.82A23.89,23.89,0,0,0,290.2.79l-.09,0L274.72,5a24,24,0,0,0-16.9,29.42l17,61.61H160v32H283.63l101,366.19a23.88,23.88,0,0,0,29.18,17l.09,0L429.28,507a24,24,0,0,0,16.9-29.42Zm255.8,459.8L448.38,17.82A23.89,23.89,0,0,0,419.2.79l-.09,0L403.72,5a24,24,0,0,0-16.9,29.42l126.8,459.8a23.88,23.88,0,0,0,29.18,17l.09,0L558.28,507a24,24,0,0,0,16.9-29.39Z"/></svg>