<svg id="Layer_1" data-name="Layer 1" xmlns="http://www.w3.org/2000/svg" viewBox="0 0 576 512"><defs><style>.cls-1{opacity:0.4;isolation:isolate;}</style></defs><title>boxes</title><path class="cls-1" d="M320,0V88a8,8,0,0,1-8,8H264a8,8,0,0,1-8-8V0ZM480,288v88a8,8,0,0,1-8,8H424a8,8,0,0,1-8-8V288Zm-320,0v88a8,8,0,0,1-8,8H104a8,8,0,0,1-8-8V288Z"/><path d="M176,224H400a16,16,0,0,0,16-16V16A16,16,0,0,0,400,0H320V88a8,8,0,0,1-8,8H264a8,8,0,0,1-8-8V0H176a16,16,0,0,0-16,16V208A16,16,0,0,0,176,224Zm384,64H480v88a8,8,0,0,1-8,8H424a8,8,0,0,1-8-8V288H336a16,16,0,0,0-16,16V496a16,16,0,0,0,16,16H560a16,16,0,0,0,16-16V304A16,16,0,0,0,560,288Zm-320,0H160v88a8,8,0,0,1-8,8H104a8,8,0,0,1-8-8V288H16A16,16,0,0,0,0,304V496a16,16,0,0,0,16,16H240a16,16,0,0,0,16-16V304A16,16,0,0,0,240,288Z"/></svg>