<svg id="Layer_1" data-name="Layer 1" xmlns="http://www.w3.org/2000/svg" viewBox="0 0 512 512.01"><defs><style>.cls-1{opacity:0.4;}</style></defs><title>check-double</title><path class="cls-1" d="M166.57,282.71,44,159.21a17.87,17.87,0,0,1,.18-25.2l42.1-41.77a17.87,17.87,0,0,1,25.2.18l68.23,68.77L336.87,5.11a17.88,17.88,0,0,1,25.21.18L404,47.41a17.88,17.88,0,0,1-.18,25.21l-212,210.27a17.88,17.88,0,0,1-25.21-.18Z"/><path d="M504.5,172a25.86,25.86,0,0,1,0,36.42l-294.4,296a25.48,25.48,0,0,1-36,.17l-.17-.17L7.5,337.1a25.84,25.84,0,0,1,0-36.41l36.2-36.41a25.49,25.49,0,0,1,36-.17l.16.17L192,377,432.1,135.54a25.49,25.49,0,0,1,36.06-.14l.14.14Z"/></svg>