<svg id="Layer_1" data-name="Layer 1" xmlns="http://www.w3.org/2000/svg" viewBox="0 0 384 512"><defs><style>.cls-1{opacity:0.4;isolation:isolate;}</style></defs><title>clipboard-list-check</title><path class="cls-1" d="M336,64H256a64,64,0,0,1,64,64H64a64,64,0,0,1,64-64H48A48,48,0,0,0,0,112V464a48,48,0,0,0,48,48H336a48,48,0,0,0,48-48h0V112A48,48,0,0,0,336,64ZM65.6,241.4l12.7-12.6a5.37,5.37,0,0,1,7.59,0h0l20.6,20.8,47.6-47.2a5.37,5.37,0,0,1,7.59,0h0l12.6,12.7a5.37,5.37,0,0,1,0,7.59h0l-64.2,63.6a5.37,5.37,0,0,1-7.59,0h0L65.6,249a5.37,5.37,0,0,1,0-7.59ZM96,392a23.94,23.94,0,1,1,.12,0Zm224-16a8,8,0,0,1-8,8H168a8,8,0,0,1-8-8V360a8,8,0,0,1,8-8H312a8,8,0,0,1,8,8Zm0-96c0,4.4-4.3,8-9.6,8H154.1l32.3-32h124c5.3,0,9.6,3.6,9.6,8Z"/><path d="M96,344a23.94,23.94,0,1,0,.12,0Zm65.7-141.6a5.37,5.37,0,0,0-7.59,0h0l-47.6,47.2L85.9,228.8a5.37,5.37,0,0,0-7.59,0h0L65.6,241.4a5.37,5.37,0,0,0,0,7.59h0l36.9,37.3a5.37,5.37,0,0,0,7.59,0h0l64.2-63.6a5.37,5.37,0,0,0,0-7.59h0ZM256,64a64,64,0,0,0-128,0,64,64,0,0,0-64,64H320A64,64,0,0,0,256,64ZM192,88a23.94,23.94,0,1,1,.12,0Z"/></svg>