<svg id="Layer_1" data-name="Layer 1" xmlns="http://www.w3.org/2000/svg" viewBox="0 0 448 512"><defs><style>.cls-1{opacity:0.4;isolation:isolate;}</style></defs><title>fire-alt</title><path class="cls-1" d="M323.56,51.2a597.19,597.19,0,0,0-56.22,60C240.08,73.62,206.28,35.53,168,0,69.74,91.17,0,210,0,281.6,0,408.85,100.29,512,224,512S448,408.85,448,281.6c0-53.27-52-163.14-124.44-230.4Zm-1.12,366.87A165.85,165.85,0,0,1,226.86,448c-43.93,0-84.43-14.89-114.06-41.92a146.16,146.16,0,0,1-35.88-50.39C68.35,335.82,64,314,64,290.75c0-59.43,42.8-106.39,104.3-180.12,30,34.59,18.49,19.78,100.7,124.59l62-70.74c24.32,40.25,27.78,45.59,34.84,59.1a157.94,157.94,0,0,1,15,104.62C373.35,365.05,352.6,397,322.44,418.07Z"/><path d="M304.09,391.85A134.38,134.38,0,0,1,226.86,416C154.71,416,96,368.26,96,290.75c0-38.61,24.31-72.63,72.79-130.75,6.93,8,98.83,125.34,98.83,125.34l58.63-66.88c4.14,6.85,7.91,13.55,11.27,20,27.35,52.19,15.81,119-33.43,153.42Z"/></svg>