<svg id="Layer_1" data-name="Layer 1" xmlns="http://www.w3.org/2000/svg" viewBox="0 0 199.35 179.67"><defs><style>.cls-1{opacity:0.4;}</style></defs><title>gsa-logo</title><path class="cls-1" d="M91.23,124.36c3.56,1.8,7.24,4.06,7.24,8.67,0,6-5.15,8.36-10.32,8.44-4,.07-8.67-1.56-12.31-3.06l-1,9.08a44.28,44.28,0,0,0,12.3,2.56c11.43.37,21.33-4.9,21.33-17.51,0-11.55-8.58-15-17-19.15-3.09-1.55-7.24-3.65-7.24-7.69,0-5.18,4.61-6.76,9.1-6.76,4.06,0,6.21.69,11.15,2.62l1.36-8.93A39,39,0,0,0,93,90.37c-10.41,0-18.81,5.5-18.81,16C74.28,117.58,83.35,120.36,91.23,124.36Z"/><polygon class="cls-1" points="140.84 109.67 145.03 119.91 154.67 119.91 140.84 89.1 127 119.91 136.63 119.91 140.84 109.67"/><polygon class="cls-1" points="147.83 137.3 140.82 131.9 128.63 138.29 133.71 126.7 126.84 120.27 113.96 149.04 123.84 149.04 147.83 137.3"/><path class="cls-1" d="M43.43,150.05a53.56,53.56,0,0,0,18.07-2.71v-30H40.94v8.42H51.79V140.7a34.91,34.91,0,0,1-8.28.78c-11.28,0-20.39-8.15-20.45-21.26C23,108,31.37,98.94,43.92,98.94c7.14,0,11.26,1.27,16.11,4.43l.79-10a44.14,44.14,0,0,0-17.31-3C26,90.37,13,102.19,13,120,13,138.28,25.22,150.05,43.43,150.05Z"/><polygon class="cls-1" points="157.59 149.04 167.7 149.04 154.83 120.27 147.96 126.7 157.59 149.04"/><path d="M0,0V179.67H179.42V0ZM43.51,141.47a34.91,34.91,0,0,0,8.28-.78V125.75H40.94v-8.42H61.5v30A53.56,53.56,0,0,1,43.43,150C25.22,150.05,13,138.28,13,120c0-17.78,12.94-29.6,30.48-29.6a44.14,44.14,0,0,1,17.31,3l-.79,10C55.15,100.24,51,99,43.89,99c-12.52,0-20.89,9-20.83,21.24C23.12,133.32,32.23,141.47,43.51,141.47Zm48-28.08c8.37,4.17,17,7.6,17,19.15,0,12.61-9.9,17.88-21.33,17.51a44.28,44.28,0,0,1-12.3-2.56l1-9.08c3.64,1.5,8.36,3.13,12.31,3.06,5.17-.08,10.32-2.47,10.32-8.44,0-4.61-3.68-6.87-7.24-8.67-7.88-4-17-6.78-17-17.94,0-10.55,8.4-16,18.81-16a39,39,0,0,1,12.83,2.26l-1.36,8.93C99.61,99.68,97.46,99,93.4,99c-4.49,0-9.1,1.58-9.1,6.76,0,4,4.16,6.09,7.25,7.64Zm42.16,13.31-5.08,11.59,12.19-6.39,7,5.4-24,11.74H114l12.88-28.77ZM127,119.91,140.84,89.1l13.83,30.81H145l-4.19-10.24-4.21,10.24ZM157.59,149,148,126.7l6.87-6.43L167.7,149Z"/><path d="M193.37,7.34a2,2,0,0,0,2-2,1.85,1.85,0,0,0-1.1-1.61,4.42,4.42,0,0,0-1.91-.23h-2.42v7h1.14v-3h.67c.87,0,1.19.3,2.1,1.88l.62,1.1h1.38L195,9.12C194.29,8,193.9,7.55,193.37,7.34Zm-.91-.81h-1.38V4.41h1.3c1.31,0,1.79.27,1.79,1s-.53,1.12-1.71,1.12Z"/><path d="M192.82.33a6.54,6.54,0,1,0,6.53,6.55v0A6.55,6.55,0,0,0,192.82.33Zm0,12a5.46,5.46,0,1,1,5.45-5.47A5.45,5.45,0,0,1,192.82,12.33Z"/></svg>