<svg id="Layer_1" data-name="Layer 1" xmlns="http://www.w3.org/2000/svg" viewBox="0 0 480 511.99"><defs><style>.cls-1{opacity:0.4;isolation:isolate;}</style></defs><title>shield_custom</title><path class="cls-1" d="M450.5,83.67l-192-80a48.24,48.24,0,0,0-36.9,0l-192,80A48,48,0,0,0,0,128c0,198.5,114.5,335.7,221.5,380.33a48.24,48.24,0,0,0,36.9,0C344.1,472.62,480,349.31,480,128A48,48,0,0,0,450.5,83.67ZM239.93,446.52C197.14,426.85,155.3,388.75,124.3,341,86.63,283,65.92,213.19,64.13,138.6L240.05,65.31l175.83,73.27C411.79,319.73,303,417.09,239.93,446.52Z"/><path d="M384.94,158.19a369.58,369.58,0,0,1-17.85,91.25,321.55,321.55,0,0,1-41.62,82.76,295.12,295.12,0,0,1-51.33,56.31,236.1,236.1,0,0,1-34.35,24.28c-33.31-18.69-65.66-50.13-90.33-88.14-31.14-47.94-49.75-105.13-54.34-166.46L240.05,97.81Z"/></svg>